<svg width="221" height="43" viewBox="0 0 221 43" fill="none" xmlns="http://www.w3.org/2000/svg">
<g filter="url(#filter0_d)">
<path d="M12.8999 19.1671L11.3776 12.9587L7.21748 12.9658L5.73978 19.1793L4.54447 19.1813L8.64028 2.0415L9.82387 2.03948L14.0718 19.1651L12.8999 19.1671ZM11.1061 11.799L9.58353 5.41489C9.42605 4.69641 9.3038 4.01693 9.21677 3.37645C9.14762 4.05626 9.0394 4.73613 8.89212 5.41607L7.43816 11.8053L11.1061 11.799ZM16.896 19.1603L15.7827 19.1622L15.7517 0.92782L16.865 0.925924L16.896 19.1603ZM21.4194 19.1526L20.3062 19.1545L20.2845 6.43964L21.3978 6.43774L21.4194 19.1526ZM20.1144 2.91258C20.1138 2.56102 20.1837 2.28746 20.324 2.09191C20.4721 1.89634 20.6594 1.79837 20.886 1.79798C21.0969 1.79762 21.265 1.89499 21.3904 2.09009C21.5157 2.28519 21.5787 2.55852 21.5793 2.91008C21.5799 3.24602 21.5178 3.51566 21.3932 3.719C21.2685 3.91452 21.1007 4.01246 20.8897 4.01282C20.6632 4.01321 20.4755 3.91587 20.3268 3.72081C20.1858 3.51793 20.115 3.24852 20.1144 2.91258ZM35.6343 19.1284L35.6195 10.4682C35.6159 8.33541 34.9891 7.27007 33.7391 7.27219C32.8797 7.27366 32.2592 7.64972 31.8777 8.40037C31.504 9.14319 31.3183 10.2412 31.3208 11.6943L31.3335 19.1357L30.2319 19.1376L30.2172 10.4774C30.2153 9.39929 30.0616 8.59877 29.7561 8.07585C29.4505 7.54512 28.9774 7.2803 28.3367 7.28139C27.493 7.28283 26.8804 7.66669 26.4988 8.43296C26.1173 9.19924 25.928 10.4418 25.931 12.1605L25.9429 19.1449L24.8296 19.1468L24.8079 6.43193L25.7454 6.43034L25.8422 8.19971L25.9477 8.19953C26.4532 6.85491 27.3153 6.18157 28.5341 6.17949C29.2372 6.1783 29.7922 6.36485 30.1991 6.73916C30.606 7.11347 30.8999 7.65984 31.0808 8.37829C31.3841 7.59652 31.7582 7.03338 32.2029 6.68887C32.6476 6.34436 33.2255 6.1715 33.9364 6.17029C34.8973 6.16866 35.6011 6.53855 36.0477 7.27998C36.4942 8.0136 36.7189 9.1929 36.7217 10.8179L36.7358 19.1265L35.6343 19.1284ZM43.7206 19.349C42.3768 19.3513 41.3407 18.7827 40.6122 17.6433C39.8915 16.4961 39.5294 14.8991 39.5259 12.8522C39.5222 10.6803 39.8397 9.02353 40.4784 7.88181C41.1249 6.73227 42.0536 6.15647 43.2645 6.15441C44.3192 6.15261 45.1521 6.6551 45.7632 7.66187C46.3743 8.66083 46.6813 10.0119 46.6842 11.715L46.6859 12.7462L40.6625 12.7565C40.6813 14.608 40.9453 15.9943 41.4547 16.9153C41.9641 17.8363 42.7344 18.296 43.7657 18.2942C44.5625 18.2928 45.4019 18.0297 46.2839 17.5047L46.2857 18.5829C45.4741 19.0921 44.619 19.3474 43.7206 19.349ZM43.1959 7.16234C41.6647 7.16495 40.8274 8.69372 40.6842 11.7487L45.5709 11.7403C45.5685 10.3419 45.3518 9.22898 44.9207 8.40159C44.4974 7.57418 43.9225 7.1611 43.1959 7.16234ZM55.2749 19.0949L55.2599 10.3293C55.2563 8.21992 54.6295 7.1663 53.3795 7.16843C52.4264 7.17006 51.7279 7.56578 51.2839 8.3556C50.8478 9.1454 50.6311 10.3997 50.6341 12.1184L50.646 19.1028L49.5327 19.1047L49.511 6.38986L50.4485 6.38827L50.5453 8.15764L50.6508 8.15746C50.9153 7.51638 51.2973 7.01963 51.7967 6.66722C52.2961 6.31481 52.8309 6.13811 53.4012 6.13714C54.3856 6.13547 55.1244 6.46624 55.6178 7.12946C56.1111 7.78487 56.359 8.84305 56.3615 10.304L56.3764 19.093L55.2749 19.0949ZM62.0586 18.2865C62.4024 18.2859 62.707 18.2385 62.9725 18.1443L62.9741 19.0818C62.6306 19.2386 62.1893 19.3175 61.6502 19.3184C60.3378 19.3207 59.6798 18.3413 59.6765 16.3804L59.6611 7.35695L58.5127 7.35891L58.5116 6.70266L59.636 6.37262L59.9941 3.34857L60.7676 3.34725L60.7727 6.37068L62.7884 6.36725L62.79 7.35162L60.7744 7.35506L60.7892 16.0621C60.7907 16.9214 60.8854 17.5072 61.0735 17.8194C61.2615 18.1316 61.5899 18.2873 62.0586 18.2865ZM72.1507 12.6794C72.1543 14.8201 71.8173 16.4613 71.1395 17.603C70.4696 18.737 69.5057 19.305 68.2479 19.3072C67.0057 19.3093 66.0516 18.7445 65.3856 17.6128C64.7274 16.4733 64.3965 14.8333 64.3929 12.6927C64.3854 8.30985 65.6786 6.11623 68.2723 6.11182C69.491 6.10974 70.4412 6.68234 71.1229 7.82962C71.8045 8.9769 72.1471 10.5935 72.1507 12.6794ZM65.553 12.6907C65.5562 14.5266 65.7773 15.913 66.2164 16.8497C66.6555 17.7865 67.3399 18.254 68.2695 18.2525C70.0898 18.2494 70.9968 16.3923 70.9905 12.6814C70.9843 9.00173 70.071 7.16344 68.2507 7.16654C67.2975 7.16817 66.6069 7.63028 66.1788 8.55289C65.7585 9.47548 65.5499 10.8547 65.553 12.6907ZM79.9491 15.8654C79.9509 16.9357 79.6711 17.776 79.1096 18.3863C78.5481 18.9889 77.7362 19.291 76.6737 19.2928C76.0955 19.2938 75.5876 19.2205 75.1499 19.0728C74.7121 18.9251 74.372 18.7616 74.1295 18.5823L74.1273 17.2815C74.4168 17.5701 74.8 17.8038 75.2769 17.9827C75.7538 18.1538 76.2422 18.2389 76.7422 18.238C77.3984 18.2369 77.9137 18.0212 78.288 17.5909C78.6622 17.1605 78.8487 16.586 78.8475 15.8673C78.8466 15.3048 78.709 14.8323 78.435 14.45C78.1687 14.0598 77.6562 13.6193 76.8975 13.1284C76.0294 12.583 75.4349 12.1465 75.1141 11.8189C74.801 11.4913 74.5543 11.1246 74.3739 10.7186C74.2013 10.3127 74.1146 9.82843 74.1136 9.26594C74.1121 8.35187 74.4194 7.59744 75.0355 7.00264C75.6517 6.40003 76.4363 6.09791 77.3895 6.09629C78.4129 6.09455 79.2688 6.33528 79.9571 6.81848L79.3846 7.79211C78.7432 7.36352 78.0631 7.14983 77.3444 7.15105C76.6881 7.15217 76.165 7.34838 75.7751 7.73967C75.3851 8.12314 75.1907 8.63129 75.1917 9.2641C75.1927 9.8266 75.3263 10.299 75.5926 10.6814C75.8589 11.0559 76.4221 11.512 77.2824 12.0496C78.1271 12.6029 78.706 13.0472 79.0191 13.3826C79.3321 13.7102 79.5632 14.077 79.7124 14.483C79.8693 14.8811 79.9482 15.3419 79.9491 15.8654ZM90.6658 19.269C89.3221 19.2713 88.286 18.7027 87.5575 17.5634C86.8367 16.4162 86.4747 14.8191 86.4712 12.7722C86.4675 10.6004 86.785 8.94357 87.4236 7.80186C88.0701 6.65232 88.9988 6.07652 90.2098 6.07445C91.2645 6.07266 92.0973 6.57515 92.7084 7.58192C93.3195 8.58088 93.6265 9.93192 93.6294 11.635L93.6312 12.6663L87.6077 12.6766C87.6265 14.5281 87.8906 15.9144 88.4 16.8354C88.9093 17.7564 89.6797 18.216 90.7109 18.2142C91.5078 18.2129 92.3472 17.9497 93.2291 17.4248L93.2309 18.5029C92.4193 19.0121 91.5643 19.2675 90.6658 19.269ZM90.1412 7.08239C88.6099 7.08499 87.7727 8.61377 87.6294 11.6687L92.5162 11.6604C92.5138 10.2619 92.297 9.14903 91.8659 8.32164C91.4427 7.49423 90.8677 7.08115 90.1412 7.08239ZM105.988 15.821C105.99 16.8913 105.71 17.7317 105.149 18.342C104.587 18.9445 103.775 19.2467 102.713 19.2485C102.135 19.2495 101.627 19.1761 101.189 19.0284C100.751 18.8807 100.411 18.7173 100.169 18.538L100.166 17.2372C100.456 17.5258 100.839 17.7595 101.316 17.9384C101.793 18.1094 102.281 18.1945 102.781 18.1937C103.437 18.1926 103.953 17.9768 104.327 17.5465C104.701 17.1162 104.888 16.5417 104.887 15.8229C104.886 15.2604 104.748 14.788 104.474 14.4056C104.208 14.0155 103.695 13.5749 102.937 13.084C102.068 12.5386 101.474 12.1022 101.153 11.7746C100.84 11.447 100.593 11.0802 100.413 10.6743C100.24 10.2683 100.154 9.78409 100.153 9.22159C100.151 8.30753 100.458 7.5531 101.075 6.9583C101.691 6.35568 102.475 6.05357 103.428 6.05194C104.452 6.0502 105.308 6.29093 105.996 6.77413L105.424 7.74777C104.782 7.31917 104.102 7.10548 103.383 7.10671C102.727 7.10783 102.204 7.30403 101.814 7.69532C101.424 8.0788 101.23 8.58694 101.231 9.21975C101.232 9.78225 101.365 10.2547 101.632 10.637C101.898 11.0116 102.461 11.4677 103.321 12.0053C104.166 12.5585 104.745 13.0028 105.058 13.3382C105.371 13.6658 105.602 14.0326 105.751 14.4386C105.908 14.8368 105.987 15.2976 105.988 15.821ZM112.181 19.2324C110.838 19.2347 109.802 18.6661 109.073 17.5267C108.352 16.3795 107.99 14.7825 107.987 12.7356C107.983 10.5637 108.301 8.90693 108.939 7.76522C109.586 6.61567 110.514 6.03987 111.725 6.03781C112.78 6.03602 113.613 6.5385 114.224 7.54528C114.835 8.54424 115.142 9.89528 115.145 11.5984L115.147 12.6296L109.123 12.6399C109.142 14.4914 109.406 15.8777 109.916 16.7987C110.425 17.7197 111.195 18.1794 112.227 18.1776C113.023 18.1762 113.863 17.9131 114.745 17.3882L114.747 18.4663C113.935 18.9755 113.08 19.2308 112.181 19.2324ZM111.657 7.04574C110.126 7.04835 109.288 8.57712 109.145 11.6321L114.032 11.6237C114.029 10.2253 113.813 9.11239 113.382 8.28499C112.958 7.45759 112.383 7.0445 111.657 7.04574ZM119.038 6.27145L119.052 14.5683C119.055 15.8261 119.205 16.7438 119.502 17.3215C119.808 17.8991 120.273 18.1873 120.898 18.1863C121.859 18.1846 122.562 17.7967 123.006 17.0225C123.458 16.2405 123.682 14.9823 123.679 13.2479L123.667 6.26357L124.769 6.26169L124.79 18.9765L123.853 18.9781L123.709 17.1971L123.615 17.1973C123.343 17.8462 122.965 18.3468 122.481 18.6992C121.998 19.0438 121.47 19.2165 120.9 19.2175C119.877 19.2193 119.126 18.8573 118.648 18.1315C118.178 17.4057 117.942 16.2186 117.939 14.5702L117.925 6.27335L119.038 6.27145ZM133.176 15.7747C133.177 16.845 132.898 17.6854 132.336 18.2957C131.775 18.8982 130.963 19.2004 129.9 19.2022C129.322 19.2032 128.814 19.1298 128.376 18.9821C127.939 18.8344 127.598 18.671 127.356 18.4917L127.354 17.1909C127.643 17.4795 128.027 17.7132 128.503 17.8921C128.98 18.0631 129.469 18.1482 129.969 18.1474C130.625 18.1463 131.14 17.9305 131.514 17.5002C131.889 17.0699 132.075 16.4954 132.074 15.7766C132.073 15.2141 131.936 14.7417 131.661 14.3593C131.395 13.9692 130.883 13.5286 130.124 13.0377C129.256 12.4923 128.661 12.0559 128.341 11.7283C128.027 11.4007 127.781 11.0339 127.6 10.628C127.428 10.222 127.341 9.73778 127.34 9.17528C127.339 8.26122 127.646 7.50679 128.262 6.91199C128.878 6.30938 129.663 6.00726 130.616 6.00564C131.639 6.0039 132.495 6.24463 133.184 6.72783L132.611 7.70146C131.97 7.27287 131.29 7.05918 130.571 7.0604C129.915 7.06152 129.392 7.25773 129.002 7.64902C128.612 8.03249 128.417 8.54064 128.418 9.17345C128.419 9.73595 128.553 10.2084 128.819 10.5907C129.085 10.9653 129.649 11.4214 130.509 11.959C131.354 12.5122 131.932 12.9565 132.246 13.2919C132.559 13.6195 132.79 13.9863 132.939 14.3923C133.096 14.7905 133.175 15.2513 133.176 15.7747ZM144.198 6.00594C146.682 6.00171 147.928 8.18319 147.936 12.5504C147.939 14.7066 147.634 16.3517 147.018 17.4855C146.403 18.6116 145.513 19.1756 144.349 19.1776C143.74 19.1786 143.185 19.0116 142.684 18.6765C142.184 18.3414 141.769 17.846 141.44 17.1903L141.346 17.1905L141.197 18.9486L140.283 18.9501L140.251 0.715783L141.365 0.713887L141.374 6.37404L141.33 7.90927L141.424 7.90911C142.094 6.64234 143.018 6.00795 144.198 6.00594ZM144.153 7.03727C143.176 7.03894 142.47 7.46983 142.034 8.32995C141.598 9.19006 141.382 10.6006 141.385 12.5615L141.385 12.8545C141.391 16.4014 142.336 18.1732 144.219 18.17C145.078 18.1685 145.718 17.7104 146.138 16.7956C146.566 15.8808 146.779 14.4664 146.776 12.5523C146.772 10.7164 146.563 9.33786 146.147 8.41669C145.732 7.49552 145.067 7.03572 144.153 7.03727ZM154.369 19.1605C153.025 19.1628 151.989 18.5943 151.26 17.4549C150.54 16.3077 150.178 14.7106 150.174 12.6637C150.17 10.4919 150.488 8.83508 151.127 7.69337C151.773 6.54383 152.702 5.96802 153.913 5.96596C154.967 5.96417 155.8 6.46665 156.411 7.47343C157.023 8.47239 157.33 9.82343 157.332 11.5266L157.334 12.5578L151.311 12.5681C151.33 14.4196 151.594 15.8059 152.103 16.7269C152.612 17.6479 153.383 18.1075 154.414 18.1058C155.211 18.1044 156.05 17.8412 156.932 17.3163L156.934 18.3944C156.122 18.9036 155.267 19.159 154.369 19.1605ZM153.844 6.97389C152.313 6.9765 151.476 8.50527 151.332 11.5602L156.219 11.5519C156.217 10.1534 156 9.04054 155.569 8.21314C155.146 7.38574 154.571 6.97266 153.844 6.97389ZM165.923 18.9065L165.908 10.1409C165.905 8.03148 165.278 6.97786 164.028 6.97999C163.075 6.98161 162.376 7.37733 161.932 8.16715C161.496 8.95696 161.279 10.2112 161.282 11.93L161.294 18.9143L160.181 18.9162L160.159 6.20142L161.097 6.19982L161.194 7.96919L161.299 7.96901C161.564 7.32793 161.946 6.83119 162.445 6.47878C162.944 6.12636 163.479 5.94967 164.049 5.9487C165.034 5.94702 165.773 6.27779 166.266 6.94102C166.759 7.59643 167.007 8.6546 167.01 10.1155L167.025 18.9046L165.923 18.9065ZM173.986 19.1271C172.642 19.1294 171.606 18.5608 170.878 17.4215C170.157 16.2742 169.795 14.6772 169.791 12.6303C169.788 10.4585 170.105 8.80167 170.744 7.65996C171.39 6.51042 172.319 5.93461 173.53 5.93255C174.585 5.93076 175.418 6.43324 176.029 7.44002C176.64 8.43898 176.947 9.79002 176.95 11.4931L176.951 12.5244L170.928 12.5346C170.947 14.3862 171.211 15.7725 171.72 16.6935C172.23 17.6145 173 18.0741 174.031 18.0723C174.828 18.071 175.667 17.8078 176.549 17.2829L176.551 18.361C175.739 18.8702 174.884 19.1256 173.986 19.1271ZM173.461 6.94048C171.93 6.94309 171.093 8.47186 170.95 11.5268L175.836 11.5185C175.834 10.12 175.617 9.00713 175.186 8.17973C174.763 7.35233 174.188 6.93924 173.461 6.94048ZM183.024 7.14685L181.032 7.15025L181.052 18.8807L179.95 18.8826L179.93 7.15212L178.313 7.15488L178.312 6.52206L179.929 6.03884L179.927 5.07791C179.924 3.46072 180.114 2.29633 180.495 1.58475C180.877 0.873157 181.54 0.516558 182.486 0.514948C183.032 0.514016 183.529 0.610828 183.974 0.805381L183.589 1.83729C183.175 1.64268 182.8 1.54566 182.464 1.54624C182.081 1.54689 181.792 1.66066 181.597 1.88756C181.402 2.11445 181.258 2.48188 181.166 2.98986C181.073 3.49783 181.027 4.20103 181.029 5.09947L181.03 6.16587L183.023 6.16248L183.024 7.14685ZM186.232 18.8719L185.118 18.8738L185.097 6.15895L186.21 6.15705L186.232 18.8719ZM184.719 4.33146L184.718 4.08537C185.708 2.78681 186.452 1.58632 186.95 0.483906L188.415 0.481412L188.416 0.68063C188.112 1.22802 187.648 1.85772 187.024 2.56972C186.408 3.28171 185.823 3.86864 185.269 4.33052L184.719 4.33146ZM192.912 19.0949C191.638 19.097 190.676 18.5479 190.026 17.4474C189.384 16.3392 189.061 14.7147 189.057 12.5741C189.053 10.4022 189.375 8.74932 190.021 7.61541C190.675 6.47366 191.639 5.90171 192.913 5.89954C193.702 5.8982 194.358 6.04161 194.882 6.32978L194.45 7.31489C193.926 7.0736 193.446 6.95332 193.008 6.95407C191.141 6.95725 190.211 8.82212 190.217 12.5487C190.223 16.244 191.16 18.09 193.027 18.0869C193.582 18.0859 194.183 17.9599 194.831 17.7088L194.833 18.6463C194.575 18.7874 194.259 18.8973 193.884 18.976C193.509 19.0548 193.185 19.0944 192.912 19.0949ZM198.208 18.8515L197.095 18.8534L197.073 6.13855L198.187 6.13665L198.208 18.8515ZM196.903 2.61149C196.903 2.25993 196.972 1.98637 197.113 1.79082C197.261 1.59525 197.448 1.49728 197.675 1.49689C197.886 1.49653 198.054 1.5939 198.179 1.789C198.305 1.9841 198.367 2.25743 198.368 2.609C198.369 2.94493 198.307 3.21457 198.182 3.41791C198.057 3.61343 197.889 3.71137 197.679 3.71173C197.452 3.71212 197.264 3.61478 197.116 3.41972C196.975 3.21684 196.904 2.94743 196.903 2.61149ZM208.768 12.4468C208.771 14.5874 208.434 16.2286 207.757 17.3704C207.087 18.5043 206.123 19.0724 204.865 19.0745C203.623 19.0766 202.669 18.5118 202.003 17.3802C201.344 16.2407 201.014 14.6006 201.01 12.46C201.002 8.07717 202.296 5.88356 204.889 5.87914C206.108 5.87707 207.058 6.44967 207.74 7.59695C208.422 8.74423 208.764 10.3608 208.768 12.4468ZM202.17 12.458C202.173 14.2939 202.394 15.6803 202.833 16.617C203.272 17.5538 203.957 18.0214 204.887 18.0198C206.707 18.0167 207.614 16.1597 207.608 12.4487C207.601 8.76906 206.688 6.93077 204.868 6.93387C203.915 6.93549 203.224 7.39761 202.796 8.32021C202.375 9.2428 202.167 10.6221 202.17 12.458ZM216.566 15.6327C216.568 16.703 216.288 17.5433 215.727 18.1537C215.165 18.7562 214.353 19.0584 213.291 19.0602C212.713 19.0612 212.205 18.9878 211.767 18.8401C211.329 18.6924 210.989 18.5289 210.746 18.3497L210.744 17.0489C211.034 17.3374 211.417 17.5712 211.894 17.75C212.371 17.9211 212.859 18.0062 213.359 18.0054C214.015 18.0042 214.531 17.7885 214.905 17.3582C215.279 16.9279 215.466 16.3533 215.465 15.6346C215.464 15.0721 215.326 14.5997 215.052 14.2173C214.786 13.8271 214.273 13.3866 213.515 12.8957C212.646 12.3503 212.052 11.9138 211.731 11.5862C211.418 11.2587 211.171 10.8919 210.991 10.4859C210.818 10.08 210.732 9.59576 210.731 9.03326C210.729 8.1192 211.036 7.36477 211.653 6.76997C212.269 6.16736 213.053 5.86524 214.006 5.86362C215.03 5.86187 215.886 6.1026 216.574 6.58581L216.002 7.55944C215.36 7.13084 214.68 6.91716 213.961 6.91838C213.305 6.9195 212.782 7.1157 212.392 7.50699C212.002 7.89047 211.808 8.39861 211.809 9.03143C211.81 9.59392 211.943 10.0664 212.21 10.4487C212.476 10.8233 213.039 11.2793 213.899 11.8169C214.744 12.3702 215.323 12.8145 215.636 13.1499C215.949 13.4775 216.18 13.8443 216.329 14.2503C216.486 14.6485 216.565 15.1093 216.566 15.6327Z" fill="black"/>
</g>
<g filter="url(#filter1_d)">
<line x1="39.997" y1="33.3764" x2="182" y2="32.9314" stroke="#1976D2" stroke-width="2"/>
</g>
<defs>
<filter id="filter0_d" x="0.544464" y="0.481415" width="220.03" height="26.8676" filterUnits="userSpaceOnUse" color-interpolation-filters="sRGB">
<feFlood flood-opacity="0" result="BackgroundImageFix"/>
<feColorMatrix in="SourceAlpha" type="matrix" values="0 0 0 0 0 0 0 0 0 0 0 0 0 0 0 0 0 0 127 0"/>
<feOffset dy="4"/>
<feGaussianBlur stdDeviation="2"/>
<feColorMatrix type="matrix" values="0 0 0 0 0 0 0 0 0 0 0 0 0 0 0 0 0 0 0.25 0"/>
<feBlend mode="normal" in2="BackgroundImageFix" result="effect1_dropShadow"/>
<feBlend mode="normal" in="SourceGraphic" in2="effect1_dropShadow" result="shape"/>
</filter>
<filter id="filter1_d" x="35.9939" y="31.9314" width="150.009" height="10.445" filterUnits="userSpaceOnUse" color-interpolation-filters="sRGB">
<feFlood flood-opacity="0" result="BackgroundImageFix"/>
<feColorMatrix in="SourceAlpha" type="matrix" values="0 0 0 0 0 0 0 0 0 0 0 0 0 0 0 0 0 0 127 0"/>
<feOffset dy="4"/>
<feGaussianBlur stdDeviation="2"/>
<feColorMatrix type="matrix" values="0 0 0 0 0 0 0 0 0 0 0 0 0 0 0 0 0 0 0.25 0"/>
<feBlend mode="normal" in2="BackgroundImageFix" result="effect1_dropShadow"/>
<feBlend mode="normal" in="SourceGraphic" in2="effect1_dropShadow" result="shape"/>
</filter>
</defs>
</svg>
