<svg width="141" height="42" viewBox="0 0 141 42" fill="none" xmlns="http://www.w3.org/2000/svg">
<g filter="url(#filter0_d)">
<path d="M13.0742 19L11.5625 12.7891H7.40234L5.91406 19H4.71875L8.84375 1.86719H10.0273L14.2461 19H13.0742ZM11.293 11.6289L9.78125 5.24219C9.625 4.52344 9.50391 3.84375 9.41797 3.20312C9.34766 3.88281 9.23828 4.5625 9.08984 5.24219L7.625 11.6289H11.293ZM18.2891 18.2031C18.6328 18.2031 18.9375 18.1562 19.2031 18.0625V19C18.8594 19.1562 18.418 19.2344 17.8789 19.2344C16.5664 19.2344 15.9102 18.2539 15.9102 16.293V7.26953H14.7617V6.61328L15.8867 6.28516L16.25 3.26172H17.0234V6.28516H19.0391V7.26953H17.0234V15.9766C17.0234 16.8359 17.1172 17.4219 17.3047 17.7344C17.4922 18.0469 17.8203 18.2031 18.2891 18.2031ZM22.3438 19H21.2305V6.28516H22.3438V19ZM21.0664 2.75781C21.0664 2.40625 21.1367 2.13281 21.2773 1.9375C21.4258 1.74219 21.6133 1.64453 21.8398 1.64453C22.0508 1.64453 22.2188 1.74219 22.3438 1.9375C22.4688 2.13281 22.5312 2.40625 22.5312 2.75781C22.5312 3.09375 22.4688 3.36328 22.3438 3.56641C22.2188 3.76172 22.0508 3.85938 21.8398 3.85938C21.6133 3.85938 21.4258 3.76172 21.2773 3.56641C21.1367 3.36328 21.0664 3.09375 21.0664 2.75781ZM27.1719 19L24.1719 6.28516H25.2969L27.1953 14.4648C27.4141 15.4102 27.625 16.4414 27.8281 17.5586H27.9219C27.9766 17.1523 28.0547 16.6992 28.1562 16.1992C28.2578 15.6992 29.0273 12.3945 30.4648 6.28516H31.5898L28.4961 19H27.1719ZM34.5312 19H33.418V6.28516H34.5312V19ZM33.2539 2.75781C33.2539 2.40625 33.3242 2.13281 33.4648 1.9375C33.6133 1.74219 33.8008 1.64453 34.0273 1.64453C34.2383 1.64453 34.4062 1.74219 34.5312 1.9375C34.6562 2.13281 34.7188 2.40625 34.7188 2.75781C34.7188 3.09375 34.6562 3.36328 34.5312 3.56641C34.4062 3.76172 34.2383 3.85938 34.0273 3.85938C33.8008 3.85938 33.6133 3.76172 33.4648 3.56641C33.3242 3.36328 33.2539 3.09375 33.2539 2.75781ZM41.0469 19.2344C38.5781 19.2344 37.3438 17.043 37.3438 12.6602C37.3438 10.5039 37.6523 8.86328 38.2695 7.73828C38.8867 6.60547 39.7969 6.03906 41 6.03906C41.5703 6.03906 42.1094 6.20312 42.6172 6.53125C43.1328 6.85938 43.543 7.3125 43.8477 7.89062H43.9414L43.8945 6.47266V0.765625H45.0078V19H44.0938L44 17.2188H43.8945C43.5898 17.8672 43.1953 18.3672 42.7109 18.7188C42.2266 19.0625 41.6719 19.2344 41.0469 19.2344ZM41.1172 18.2617C42.0078 18.2617 42.6914 17.8516 43.168 17.0312C43.6523 16.2031 43.8945 14.9883 43.8945 13.3867V12.6602C43.8945 10.7383 43.6602 9.33203 43.1914 8.44141C42.7305 7.54297 42.0234 7.09375 41.0703 7.09375C40.1562 7.09375 39.5 7.57422 39.1016 8.53516C38.7031 9.48828 38.5039 10.8711 38.5039 12.6836C38.5039 14.5117 38.7109 15.8984 39.125 16.8438C39.5391 17.7891 40.2031 18.2617 41.1172 18.2617ZM53.3398 19L53.1992 17.2188H53.1523C52.543 18.5625 51.6211 19.2344 50.3867 19.2344C49.5586 19.2344 48.8906 18.9062 48.3828 18.25C47.8828 17.5859 47.6328 16.6992 47.6328 15.5898C47.6328 14.3789 47.9961 13.4219 48.7227 12.7188C49.4492 12.0078 50.4688 11.6211 51.7812 11.5586L53.1523 11.4883V10.4336C53.1523 9.24609 53.0039 8.38281 52.707 7.84375C52.4102 7.29688 51.918 7.02344 51.2305 7.02344C50.5039 7.02344 49.7617 7.26172 49.0039 7.73828L48.5234 6.85938C49.4062 6.3125 50.332 6.03906 51.3008 6.03906C52.3477 6.03906 53.1016 6.37109 53.5625 7.03516C54.0234 7.69141 54.2539 8.79297 54.2539 10.3398V19H53.3398ZM50.6328 18.2852C51.4297 18.2852 52.0469 17.8945 52.4844 17.1133C52.9297 16.3242 53.1523 15.2109 53.1523 13.7734V12.4492L51.8281 12.5195C50.8047 12.5742 50.043 12.8594 49.543 13.375C49.0508 13.8828 48.8047 14.6289 48.8047 15.6133C48.8047 16.5352 48.9688 17.2109 49.2969 17.6406C49.625 18.0703 50.0703 18.2852 50.6328 18.2852ZM60.7109 19.2344C58.2422 19.2344 57.0078 17.043 57.0078 12.6602C57.0078 10.5039 57.3164 8.86328 57.9336 7.73828C58.5508 6.60547 59.4609 6.03906 60.6641 6.03906C61.2344 6.03906 61.7734 6.20312 62.2812 6.53125C62.7969 6.85938 63.207 7.3125 63.5117 7.89062H63.6055L63.5586 6.47266V0.765625H64.6719V19H63.7578L63.6641 17.2188H63.5586C63.2539 17.8672 62.8594 18.3672 62.375 18.7188C61.8906 19.0625 61.3359 19.2344 60.7109 19.2344ZM60.7812 18.2617C61.6719 18.2617 62.3555 17.8516 62.832 17.0312C63.3164 16.2031 63.5586 14.9883 63.5586 13.3867V12.6602C63.5586 10.7383 63.3242 9.33203 62.8555 8.44141C62.3945 7.54297 61.6875 7.09375 60.7344 7.09375C59.8203 7.09375 59.1641 7.57422 58.7656 8.53516C58.3672 9.48828 58.168 10.8711 58.168 12.6836C58.168 14.5117 58.375 15.8984 58.7891 16.8438C59.2031 17.7891 59.8672 18.2617 60.7812 18.2617ZM71.6914 19.2344C70.3477 19.2344 69.3125 18.6641 68.5859 17.5234C67.8672 16.375 67.5078 14.7773 67.5078 12.7305C67.5078 10.5586 67.8281 8.90234 68.4688 7.76172C69.1172 6.61328 70.0469 6.03906 71.2578 6.03906C72.3125 6.03906 73.1445 6.54297 73.7539 7.55078C74.3633 8.55078 74.668 9.90234 74.668 11.6055V12.6367H68.6445C68.6602 14.4883 68.9219 15.875 69.4297 16.7969C69.9375 17.7188 70.707 18.1797 71.7383 18.1797C72.5352 18.1797 73.375 17.918 74.2578 17.3945V18.4727C73.4453 18.9805 72.5898 19.2344 71.6914 19.2344ZM71.1875 7.04688C69.6562 7.04688 68.8164 8.57422 68.668 11.6289H73.5547C73.5547 10.2305 73.3398 9.11719 72.9102 8.28906C72.4883 7.46094 71.9141 7.04688 71.1875 7.04688ZM82.4961 15.8125C82.4961 16.8828 82.2148 17.7227 81.6523 18.332C81.0898 18.9336 80.2773 19.2344 79.2148 19.2344C78.6367 19.2344 78.1289 19.1602 77.6914 19.0117C77.2539 18.8633 76.9141 18.6992 76.6719 18.5195V17.2188C76.9609 17.5078 77.3438 17.7422 77.8203 17.9219C78.2969 18.0938 78.7852 18.1797 79.2852 18.1797C79.9414 18.1797 80.457 17.9648 80.832 17.5352C81.207 17.1055 81.3945 16.5312 81.3945 15.8125C81.3945 15.25 81.2578 14.7773 80.9844 14.3945C80.7188 14.0039 80.207 13.5625 79.4492 13.0703C78.582 12.5234 77.9883 12.0859 77.668 11.7578C77.3555 11.4297 77.1094 11.0625 76.9297 10.6562C76.7578 10.25 76.6719 9.76562 76.6719 9.20312C76.6719 8.28906 76.9805 7.53516 77.5977 6.94141C78.2148 6.33984 79 6.03906 79.9531 6.03906C80.9766 6.03906 81.832 6.28125 82.5195 6.76562L81.9453 7.73828C81.3047 7.30859 80.625 7.09375 79.9062 7.09375C79.25 7.09375 78.7266 7.28906 78.3359 7.67969C77.9453 8.0625 77.75 8.57031 77.75 9.20312C77.75 9.76562 77.8828 10.2383 78.1484 10.6211C78.4141 10.9961 78.9766 11.4531 79.8359 11.9922C80.6797 12.5469 81.2578 12.9922 81.5703 13.3281C81.8828 13.6562 82.1133 14.0234 82.2617 14.4297C82.418 14.8281 82.4961 15.2891 82.4961 15.8125ZM90.9219 19H89.7734V1.86719H96.0078V2.96875H90.9219V10.2344H95.7266V11.3477H90.9219V19ZM99.2656 19H98.1523V6.28516H99.2656V19ZM97.7773 4.45703V4.21094C98.7695 2.91406 99.5156 1.71484 100.016 0.613281H101.48V0.8125C101.176 1.35938 100.711 1.98828 100.086 2.69922C99.4688 3.41016 98.8828 3.99609 98.3281 4.45703H97.7773ZM107.668 15.8125C107.668 16.8828 107.387 17.7227 106.824 18.332C106.262 18.9336 105.449 19.2344 104.387 19.2344C103.809 19.2344 103.301 19.1602 102.863 19.0117C102.426 18.8633 102.086 18.6992 101.844 18.5195V17.2188C102.133 17.5078 102.516 17.7422 102.992 17.9219C103.469 18.0938 103.957 18.1797 104.457 18.1797C105.113 18.1797 105.629 17.9648 106.004 17.5352C106.379 17.1055 106.566 16.5312 106.566 15.8125C106.566 15.25 106.43 14.7773 106.156 14.3945C105.891 14.0039 105.379 13.5625 104.621 13.0703C103.754 12.5234 103.16 12.0859 102.84 11.7578C102.527 11.4297 102.281 11.0625 102.102 10.6562C101.93 10.25 101.844 9.76562 101.844 9.20312C101.844 8.28906 102.152 7.53516 102.77 6.94141C103.387 6.33984 104.172 6.03906 105.125 6.03906C106.148 6.03906 107.004 6.28125 107.691 6.76562L107.117 7.73828C106.477 7.30859 105.797 7.09375 105.078 7.09375C104.422 7.09375 103.898 7.28906 103.508 7.67969C103.117 8.0625 102.922 8.57031 102.922 9.20312C102.922 9.76562 103.055 10.2383 103.32 10.6211C103.586 10.9961 104.148 11.4531 105.008 11.9922C105.852 12.5469 106.43 12.9922 106.742 13.3281C107.055 13.6562 107.285 14.0234 107.434 14.4297C107.59 14.8281 107.668 15.2891 107.668 15.8125ZM111.359 19H110.246V6.28516H111.359V19ZM110.082 2.75781C110.082 2.40625 110.152 2.13281 110.293 1.9375C110.441 1.74219 110.629 1.64453 110.855 1.64453C111.066 1.64453 111.234 1.74219 111.359 1.9375C111.484 2.13281 111.547 2.40625 111.547 2.75781C111.547 3.09375 111.484 3.36328 111.359 3.56641C111.234 3.76172 111.066 3.85938 110.855 3.85938C110.629 3.85938 110.441 3.76172 110.293 3.56641C110.152 3.36328 110.082 3.09375 110.082 2.75781ZM118.039 19.2344C116.766 19.2344 115.805 18.6836 115.156 17.582C114.516 16.4727 114.195 14.8477 114.195 12.707C114.195 10.5352 114.52 8.88281 115.168 7.75C115.824 6.60938 116.789 6.03906 118.062 6.03906C118.852 6.03906 119.508 6.18359 120.031 6.47266L119.598 7.45703C119.074 7.21484 118.594 7.09375 118.156 7.09375C116.289 7.09375 115.355 8.95703 115.355 12.6836C115.355 16.3789 116.289 18.2266 118.156 18.2266C118.711 18.2266 119.312 18.1016 119.961 17.8516V18.7891C119.703 18.9297 119.387 19.0391 119.012 19.1172C118.637 19.1953 118.312 19.2344 118.039 19.2344ZM127.145 19L127.004 17.2188H126.957C126.348 18.5625 125.426 19.2344 124.191 19.2344C123.363 19.2344 122.695 18.9062 122.188 18.25C121.688 17.5859 121.438 16.6992 121.438 15.5898C121.438 14.3789 121.801 13.4219 122.527 12.7188C123.254 12.0078 124.273 11.6211 125.586 11.5586L126.957 11.4883V10.4336C126.957 9.24609 126.809 8.38281 126.512 7.84375C126.215 7.29688 125.723 7.02344 125.035 7.02344C124.309 7.02344 123.566 7.26172 122.809 7.73828L122.328 6.85938C123.211 6.3125 124.137 6.03906 125.105 6.03906C126.152 6.03906 126.906 6.37109 127.367 7.03516C127.828 7.69141 128.059 8.79297 128.059 10.3398V19H127.145ZM124.438 18.2852C125.234 18.2852 125.852 17.8945 126.289 17.1133C126.734 16.3242 126.957 15.2109 126.957 13.7734V12.4492L125.633 12.5195C124.609 12.5742 123.848 12.8594 123.348 13.375C122.855 13.8828 122.609 14.6289 122.609 15.6133C122.609 16.5352 122.773 17.2109 123.102 17.6406C123.43 18.0703 123.875 18.2852 124.438 18.2852ZM136.402 15.8125C136.402 16.8828 136.121 17.7227 135.559 18.332C134.996 18.9336 134.184 19.2344 133.121 19.2344C132.543 19.2344 132.035 19.1602 131.598 19.0117C131.16 18.8633 130.82 18.6992 130.578 18.5195V17.2188C130.867 17.5078 131.25 17.7422 131.727 17.9219C132.203 18.0938 132.691 18.1797 133.191 18.1797C133.848 18.1797 134.363 17.9648 134.738 17.5352C135.113 17.1055 135.301 16.5312 135.301 15.8125C135.301 15.25 135.164 14.7773 134.891 14.3945C134.625 14.0039 134.113 13.5625 133.355 13.0703C132.488 12.5234 131.895 12.0859 131.574 11.7578C131.262 11.4297 131.016 11.0625 130.836 10.6562C130.664 10.25 130.578 9.76562 130.578 9.20312C130.578 8.28906 130.887 7.53516 131.504 6.94141C132.121 6.33984 132.906 6.03906 133.859 6.03906C134.883 6.03906 135.738 6.28125 136.426 6.76562L135.852 7.73828C135.211 7.30859 134.531 7.09375 133.812 7.09375C133.156 7.09375 132.633 7.28906 132.242 7.67969C131.852 8.0625 131.656 8.57031 131.656 9.20312C131.656 9.76562 131.789 10.2383 132.055 10.6211C132.32 10.9961 132.883 11.4531 133.742 11.9922C134.586 12.5469 135.164 12.9922 135.477 13.3281C135.789 13.6562 136.02 14.0234 136.168 14.4297C136.324 14.8281 136.402 15.2891 136.402 15.8125Z" fill="black"/>
</g>
<g filter="url(#filter1_d)">
<line x1="23.9912" y1="32.8143" x2="116.993" y2="31.9585" stroke="#1976D2" stroke-width="2"/>
</g>
<defs>
<filter id="filter0_d" x="0.71875" y="0.613281" width="139.707" height="26.6211" filterUnits="userSpaceOnUse" color-interpolation-filters="sRGB">
<feFlood flood-opacity="0" result="BackgroundImageFix"/>
<feColorMatrix in="SourceAlpha" type="matrix" values="0 0 0 0 0 0 0 0 0 0 0 0 0 0 0 0 0 0 127 0"/>
<feOffset dy="4"/>
<feGaussianBlur stdDeviation="2"/>
<feColorMatrix type="matrix" values="0 0 0 0 0 0 0 0 0 0 0 0 0 0 0 0 0 0 0.25 0"/>
<feBlend mode="normal" in2="BackgroundImageFix" result="effect1_dropShadow"/>
<feBlend mode="normal" in="SourceGraphic" in2="effect1_dropShadow" result="shape"/>
</filter>
<filter id="filter1_d" x="19.9819" y="30.9585" width="101.02" height="10.8557" filterUnits="userSpaceOnUse" color-interpolation-filters="sRGB">
<feFlood flood-opacity="0" result="BackgroundImageFix"/>
<feColorMatrix in="SourceAlpha" type="matrix" values="0 0 0 0 0 0 0 0 0 0 0 0 0 0 0 0 0 0 127 0"/>
<feOffset dy="4"/>
<feGaussianBlur stdDeviation="2"/>
<feColorMatrix type="matrix" values="0 0 0 0 0 0 0 0 0 0 0 0 0 0 0 0 0 0 0.25 0"/>
<feBlend mode="normal" in2="BackgroundImageFix" result="effect1_dropShadow"/>
<feBlend mode="normal" in="SourceGraphic" in2="effect1_dropShadow" result="shape"/>
</filter>
</defs>
</svg>
