<svg width="211" height="79" viewBox="0 0 211 79" fill="none" xmlns="http://www.w3.org/2000/svg">
<g filter="url(#filter0_d)">
<path d="M4.15625 47V1.3125H7.21875V44.0625H20.0938V47H4.15625ZM26.4062 47V1.3125H29.4688V47H26.4062ZM42.5312 47H39.4688V1.3125H56.0938V4.25H42.5312V23.625H55.3438V26.5938H42.5312V47ZM78.8438 47H62.2812V1.3125H78.8438V4.25H65.3438V21.5938H78.0938V24.5312H65.3438V44.0625H78.8438V47ZM116.5 35.0312C116.5 38.7812 115.458 41.8229 113.375 44.1562C111.292 46.4688 108.646 47.625 105.438 47.625C101.792 47.625 98.8646 47.0938 96.6562 46.0312V42.7188C97.7396 43.3229 99.0833 43.8021 100.688 44.1562C102.292 44.5104 103.875 44.6875 105.438 44.6875C107.771 44.6875 109.688 43.8021 111.188 42.0312C112.688 40.2604 113.438 38.0104 113.438 35.2812C113.438 32.7604 112.906 30.7604 111.844 29.2812C110.781 27.8021 108.75 26.3229 105.75 24.8438C103.396 23.6562 101.635 22.5104 100.469 21.4062C99.3021 20.2812 98.4375 18.9792 97.875 17.5C97.3125 16.0208 97.0312 14.25 97.0312 12.1875C97.0312 9.9375 97.4896 7.9375 98.4062 6.1875C99.3229 4.4375 100.604 3.08333 102.25 2.125C103.896 1.14583 105.698 0.65625 107.656 0.65625C109.427 0.65625 111.031 0.854167 112.469 1.25C113.927 1.64583 115.073 2.07292 115.906 2.53125L114.719 5.46875C112.406 4.28125 110.052 3.6875 107.656 3.6875C105.406 3.6875 103.573 4.45833 102.156 6C100.76 7.52083 100.062 9.54167 100.062 12.0625C100.062 14.625 100.573 16.6146 101.594 18.0312C102.615 19.4479 104.615 20.9167 107.594 22.4375C110.677 23.9375 112.927 25.6979 114.344 27.7188C115.781 29.7188 116.5 32.1562 116.5 35.0312ZM131.875 47H128.812V4.25H119.719V1.3125H140.969V4.25H131.875V47ZM152.281 24.9062L159.719 1.3125H162.969L153.75 29.1562V47H150.688V29.1562L141.531 1.3125H144.781L152.281 24.9062ZM167.969 47V1.3125H171.031V44.0625H183.906V47H167.969ZM206.781 47H190.219V1.3125H206.781V4.25H193.281V21.5938H206.031V24.5312H193.281V44.0625H206.781V47Z" fill="#1976D2"/>
</g>
<g filter="url(#filter1_d)">
<path d="M17.8325 60.253H18.9305L15.7085 70H14.3135L11.1005 60.253H12.2165L15.0245 68.983L17.8325 60.253ZM20.206 70V60.253H21.25V70H20.206ZM20.728 57.967C20.482 57.967 20.287 57.901 20.143 57.769C20.005 57.631 19.936 57.445 19.936 57.211C19.936 56.977 20.005 56.791 20.143 56.653C20.287 56.509 20.482 56.437 20.728 56.437C20.974 56.437 21.166 56.509 21.304 56.653C21.448 56.791 21.52 56.977 21.52 57.211C21.52 57.445 21.448 57.631 21.304 57.769C21.166 57.901 20.974 57.967 20.728 57.967ZM29.2759 60.253H30.3739L27.1519 70H25.7569L22.5439 60.253H23.6599L26.4679 68.983L29.2759 60.253ZM33.7531 60.109C34.4671 60.109 35.0551 60.214 35.5171 60.424C35.9791 60.628 36.3271 60.967 36.5611 61.441C36.8011 61.915 36.9211 62.554 36.9211 63.358V70H36.0391L35.9491 68.92H35.8681C35.5861 69.328 35.2351 69.637 34.8151 69.847C34.4011 70.051 33.9391 70.153 33.4291 70.153C32.9131 70.153 32.4571 70.051 32.0611 69.847C31.6711 69.643 31.3681 69.346 31.1521 68.956C30.9361 68.566 30.8281 68.098 30.8281 67.552C30.8281 66.694 31.0801 66.028 31.5841 65.554C32.0941 65.08 32.8741 64.792 33.9241 64.69L35.8861 64.465V63.322C35.8861 62.734 35.8021 62.272 35.6341 61.936C35.4721 61.6 35.2291 61.366 34.9051 61.234C34.5811 61.096 34.1581 61.027 33.6361 61.027C33.3001 61.027 32.9311 61.06 32.5291 61.126C32.1331 61.192 31.7431 61.291 31.3591 61.423V60.496C31.6891 60.376 32.0731 60.283 32.5111 60.217C32.9491 60.145 33.3631 60.109 33.7531 60.109ZM33.6631 69.262C34.0771 69.262 34.4791 69.157 34.8691 68.947C35.2591 68.737 35.5981 68.395 35.8861 67.921V65.284L33.9781 65.482C33.2701 65.554 32.7451 65.752 32.4031 66.076C32.0671 66.394 31.8991 66.847 31.8991 67.435C31.8991 68.047 32.0491 68.506 32.3491 68.812C32.6551 69.112 33.0931 69.262 33.6631 69.262ZM45.8124 70.171C44.8404 70.171 44.0514 69.793 43.4454 69.037C42.8454 68.281 42.5454 67.042 42.5454 65.32C42.5454 63.544 42.9054 62.233 43.6254 61.387C44.3514 60.535 45.4254 60.109 46.8474 60.109C47.2494 60.109 47.6514 60.133 48.0534 60.181V55.456H49.0974V70H48.1884L48.1074 69.028H48.0264C47.7984 69.364 47.4924 69.64 47.1084 69.856C46.7244 70.066 46.2924 70.171 45.8124 70.171ZM46.0104 69.226C46.4184 69.226 46.8084 69.118 47.1804 68.902C47.5524 68.686 47.8434 68.377 48.0534 67.975V61.126C47.8914 61.09 47.6904 61.063 47.4504 61.045C47.2164 61.021 46.9974 61.009 46.7934 61.009C45.7374 61.009 44.9454 61.339 44.4174 61.999C43.8894 62.653 43.6254 63.727 43.6254 65.221C43.6254 66.259 43.7274 67.072 43.9314 67.66C44.1354 68.248 44.4114 68.656 44.7594 68.884C45.1074 69.112 45.5244 69.226 46.0104 69.226ZM57.5246 65.509H52.1156C52.1336 66.445 52.2506 67.186 52.4666 67.732C52.6826 68.272 52.9976 68.659 53.4116 68.893C53.8316 69.127 54.3716 69.244 55.0316 69.244C55.6016 69.244 56.2856 69.124 57.0836 68.884V69.811C56.3396 70.051 55.6226 70.171 54.9326 70.171C54.0506 70.171 53.3246 70.006 52.7546 69.676C52.1846 69.34 51.7556 68.803 51.4676 68.065C51.1796 67.327 51.0356 66.346 51.0356 65.122C51.0356 63.382 51.3296 62.113 51.9176 61.315C52.5056 60.511 53.3216 60.109 54.3656 60.109C55.3856 60.109 56.1656 60.505 56.7056 61.297C57.2516 62.083 57.5246 63.361 57.5246 65.131V65.509ZM54.3656 60.946C53.6696 60.946 53.1266 61.228 52.7366 61.792C52.3466 62.35 52.1396 63.319 52.1156 64.699H56.4806C56.4686 63.751 56.3756 63.001 56.2016 62.449C56.0276 61.897 55.7876 61.51 55.4816 61.288C55.1756 61.06 54.8036 60.946 54.3656 60.946ZM65.5982 70.162C63.8882 70.162 63.0332 69.148 63.0332 67.12V60.253H64.0772V67.102C64.0772 67.852 64.2272 68.389 64.5272 68.713C64.8332 69.037 65.2622 69.199 65.8142 69.199C66.2342 69.199 66.6632 69.085 67.1012 68.857C67.5452 68.623 67.9022 68.263 68.1722 67.777V60.253H69.2162V70H68.3162L68.2352 68.929H68.1542C67.8182 69.337 67.4282 69.646 66.9842 69.856C66.5462 70.06 66.0842 70.162 65.5982 70.162ZM80.073 60.109C80.835 60.109 81.444 60.346 81.9 60.82C82.356 61.294 82.584 62.074 82.584 63.16V70H81.54V63.187C81.54 61.777 80.976 61.072 79.848 61.072C79.452 61.072 79.047 61.186 78.633 61.414C78.219 61.636 77.877 62.002 77.607 62.512C77.625 62.698 77.634 62.902 77.634 63.124V70H76.599V63.187C76.599 62.425 76.452 61.882 76.158 61.558C75.87 61.234 75.465 61.072 74.943 61.072C74.541 61.072 74.127 61.192 73.701 61.432C73.275 61.666 72.93 62.038 72.666 62.548V70H71.622V60.253H72.513L72.603 61.369H72.684C73.02 60.949 73.401 60.634 73.827 60.424C74.259 60.214 74.721 60.109 75.213 60.109C76.305 60.109 77.031 60.577 77.391 61.513C77.757 61.021 78.174 60.664 78.642 60.442C79.11 60.22 79.587 60.109 80.073 60.109ZM87.2961 60.109C88.0101 60.109 88.5981 60.214 89.0601 60.424C89.5221 60.628 89.8701 60.967 90.1041 61.441C90.3441 61.915 90.4641 62.554 90.4641 63.358V70H89.5821L89.4921 68.92H89.4111C89.1291 69.328 88.7781 69.637 88.3581 69.847C87.9441 70.051 87.4821 70.153 86.9721 70.153C86.4561 70.153 86.0001 70.051 85.6041 69.847C85.2141 69.643 84.9111 69.346 84.6951 68.956C84.4791 68.566 84.3711 68.098 84.3711 67.552C84.3711 66.694 84.6231 66.028 85.1271 65.554C85.6371 65.08 86.4171 64.792 87.4671 64.69L89.4291 64.465V63.322C89.4291 62.734 89.3451 62.272 89.1771 61.936C89.0151 61.6 88.7721 61.366 88.4481 61.234C88.1241 61.096 87.7011 61.027 87.1791 61.027C86.8431 61.027 86.4741 61.06 86.0721 61.126C85.6761 61.192 85.2861 61.291 84.9021 61.423V60.496C85.2321 60.376 85.6161 60.283 86.0541 60.217C86.4921 60.145 86.9061 60.109 87.2961 60.109ZM87.2061 69.262C87.6201 69.262 88.0221 69.157 88.4121 68.947C88.8021 68.737 89.1411 68.395 89.4291 67.921V65.284L87.5211 65.482C86.8131 65.554 86.2881 65.752 85.9461 66.076C85.6101 66.394 85.4421 66.847 85.4421 67.435C85.4421 68.047 85.5921 68.506 85.8921 68.812C86.1981 69.112 86.6361 69.262 87.2061 69.262ZM100.048 56.203C99.4184 56.203 98.9504 56.353 98.6444 56.653C98.3384 56.953 98.1854 57.433 98.1854 58.093V60.253H100.786V61.153H98.1854V70H97.1504V61.153H95.4314V60.253H97.1504V58.12C97.1504 57.184 97.3904 56.476 97.8704 55.996C98.3504 55.516 99.0584 55.276 99.9944 55.276C100.432 55.276 100.804 55.306 101.11 55.366V56.302C100.726 56.236 100.372 56.203 100.048 56.203ZM104.739 70.171C102.417 70.171 101.256 68.494 101.256 65.14C101.256 63.382 101.556 62.104 102.156 61.306C102.756 60.508 103.617 60.109 104.739 60.109C107.061 60.109 108.222 61.783 108.222 65.131C108.222 66.889 107.922 68.17 107.322 68.974C106.722 69.772 105.861 70.171 104.739 70.171ZM104.739 69.28C105.255 69.28 105.687 69.157 106.035 68.911C106.389 68.659 106.659 68.233 106.845 67.633C107.037 67.027 107.133 66.205 107.133 65.167C107.133 64.111 107.037 63.277 106.845 62.665C106.653 62.053 106.383 61.624 106.035 61.378C105.687 61.126 105.255 61 104.739 61C104.223 61 103.788 61.126 103.434 61.378C103.086 61.624 102.816 62.05 102.624 62.656C102.432 63.256 102.336 64.072 102.336 65.104C102.336 66.16 102.432 66.994 102.624 67.606C102.816 68.218 103.086 68.65 103.434 68.902C103.788 69.154 104.223 69.28 104.739 69.28ZM110.153 60.253H111.044L111.125 61.576H111.215C111.503 61.108 111.866 60.757 112.304 60.523C112.742 60.283 113.213 60.163 113.717 60.163C113.855 60.163 114.029 60.178 114.239 60.208V61.216C114.107 61.198 113.915 61.189 113.663 61.189C113.165 61.189 112.691 61.327 112.241 61.603C111.791 61.873 111.443 62.251 111.197 62.737V70H110.153V60.253ZM123.983 60.109C124.745 60.109 125.354 60.346 125.81 60.82C126.266 61.294 126.494 62.074 126.494 63.16V70H125.45V63.187C125.45 61.777 124.886 61.072 123.758 61.072C123.362 61.072 122.957 61.186 122.543 61.414C122.129 61.636 121.787 62.002 121.517 62.512C121.535 62.698 121.544 62.902 121.544 63.124V70H120.509V63.187C120.509 62.425 120.362 61.882 120.068 61.558C119.78 61.234 119.375 61.072 118.853 61.072C118.451 61.072 118.037 61.192 117.611 61.432C117.185 61.666 116.84 62.038 116.576 62.548V70H115.532V60.253H116.423L116.513 61.369H116.594C116.93 60.949 117.311 60.634 117.737 60.424C118.169 60.214 118.631 60.109 119.123 60.109C120.215 60.109 120.941 60.577 121.301 61.513C121.667 61.021 122.084 60.664 122.552 60.442C123.02 60.22 123.497 60.109 123.983 60.109ZM131.206 60.109C131.92 60.109 132.508 60.214 132.97 60.424C133.432 60.628 133.78 60.967 134.014 61.441C134.254 61.915 134.374 62.554 134.374 63.358V70H133.492L133.402 68.92H133.321C133.039 69.328 132.688 69.637 132.268 69.847C131.854 70.051 131.392 70.153 130.882 70.153C130.366 70.153 129.91 70.051 129.514 69.847C129.124 69.643 128.821 69.346 128.605 68.956C128.389 68.566 128.281 68.098 128.281 67.552C128.281 66.694 128.533 66.028 129.037 65.554C129.547 65.08 130.327 64.792 131.377 64.69L133.339 64.465V63.322C133.339 62.734 133.255 62.272 133.087 61.936C132.925 61.6 132.682 61.366 132.358 61.234C132.034 61.096 131.611 61.027 131.089 61.027C130.753 61.027 130.384 61.06 129.982 61.126C129.586 61.192 129.196 61.291 128.812 61.423V60.496C129.142 60.376 129.526 60.283 129.964 60.217C130.402 60.145 130.816 60.109 131.206 60.109ZM131.116 69.262C131.53 69.262 131.932 69.157 132.322 68.947C132.712 68.737 133.051 68.395 133.339 67.921V65.284L131.431 65.482C130.723 65.554 130.198 65.752 129.856 66.076C129.52 66.394 129.352 66.847 129.352 67.435C129.352 68.047 129.502 68.506 129.802 68.812C130.108 69.112 130.546 69.262 131.116 69.262ZM142.222 70.171C141.472 70.171 140.755 70.051 140.071 69.811V68.884C140.845 69.13 141.559 69.253 142.213 69.253C142.933 69.253 143.482 69.097 143.86 68.785C144.244 68.473 144.436 68.026 144.436 67.444C144.436 66.94 144.319 66.556 144.085 66.292C143.851 66.022 143.485 65.815 142.987 65.671L142.069 65.419C141.289 65.197 140.728 64.876 140.386 64.456C140.05 64.036 139.882 63.49 139.882 62.818C139.882 62.29 140.008 61.822 140.26 61.414C140.518 61.006 140.893 60.688 141.385 60.46C141.877 60.226 142.465 60.109 143.149 60.109C143.797 60.109 144.406 60.178 144.976 60.316V61.243C144.652 61.165 144.349 61.108 144.067 61.072C143.791 61.036 143.494 61.018 143.176 61.018C142.42 61.018 141.85 61.186 141.466 61.522C141.082 61.852 140.89 62.275 140.89 62.791C140.89 63.247 141.004 63.61 141.232 63.88C141.46 64.144 141.817 64.345 142.303 64.483L143.221 64.735C144.031 64.957 144.604 65.284 144.94 65.716C145.276 66.142 145.444 66.703 145.444 67.399C145.444 67.975 145.315 68.473 145.057 68.893C144.805 69.307 144.436 69.625 143.95 69.847C143.47 70.063 142.894 70.171 142.222 70.171ZM149.54 60.109C150.254 60.109 150.842 60.214 151.304 60.424C151.766 60.628 152.114 60.967 152.348 61.441C152.588 61.915 152.708 62.554 152.708 63.358V70H151.826L151.736 68.92H151.655C151.373 69.328 151.022 69.637 150.602 69.847C150.188 70.051 149.726 70.153 149.216 70.153C148.7 70.153 148.244 70.051 147.848 69.847C147.458 69.643 147.155 69.346 146.939 68.956C146.723 68.566 146.615 68.098 146.615 67.552C146.615 66.694 146.867 66.028 147.371 65.554C147.881 65.08 148.661 64.792 149.711 64.69L151.673 64.465V63.322C151.673 62.734 151.589 62.272 151.421 61.936C151.259 61.6 151.016 61.366 150.692 61.234C150.368 61.096 149.945 61.027 149.423 61.027C149.087 61.027 148.718 61.06 148.316 61.126C147.92 61.192 147.53 61.291 147.146 61.423V60.496C147.476 60.376 147.86 60.283 148.298 60.217C148.736 60.145 149.15 60.109 149.54 60.109ZM149.45 69.262C149.864 69.262 150.266 69.157 150.656 68.947C151.046 68.737 151.385 68.395 151.673 67.921V65.284L149.765 65.482C149.057 65.554 148.532 65.752 148.19 66.076C147.854 66.394 147.686 66.847 147.686 67.435C147.686 68.047 147.836 68.506 148.136 68.812C148.442 69.112 148.88 69.262 149.45 69.262ZM157.532 70.162C155.822 70.162 154.967 69.148 154.967 67.12V60.253H156.011V67.102C156.011 67.852 156.161 68.389 156.461 68.713C156.767 69.037 157.196 69.199 157.748 69.199C158.168 69.199 158.597 69.085 159.035 68.857C159.479 68.623 159.836 68.263 160.106 67.777V60.253H161.15V70H160.25L160.169 68.929H160.088C159.752 69.337 159.362 69.646 158.918 69.856C158.48 70.06 158.018 70.162 157.532 70.162ZM166.346 70.171C165.374 70.171 164.585 69.793 163.979 69.037C163.379 68.281 163.079 67.042 163.079 65.32C163.079 63.544 163.439 62.233 164.159 61.387C164.885 60.535 165.959 60.109 167.381 60.109C167.783 60.109 168.185 60.133 168.587 60.181V55.456H169.631V70H168.722L168.641 69.028H168.56C168.332 69.364 168.026 69.64 167.642 69.856C167.258 70.066 166.826 70.171 166.346 70.171ZM166.544 69.226C166.952 69.226 167.342 69.118 167.714 68.902C168.086 68.686 168.377 68.377 168.587 67.975V61.126C168.425 61.09 168.224 61.063 167.984 61.045C167.75 61.021 167.531 61.009 167.327 61.009C166.271 61.009 165.479 61.339 164.951 61.999C164.423 62.653 164.159 63.727 164.159 65.221C164.159 66.259 164.261 67.072 164.465 67.66C164.669 68.248 164.945 68.656 165.293 68.884C165.641 69.112 166.058 69.226 166.544 69.226ZM174.431 60.109C175.145 60.109 175.733 60.214 176.195 60.424C176.657 60.628 177.005 60.967 177.239 61.441C177.479 61.915 177.599 62.554 177.599 63.358V70H176.717L176.627 68.92H176.546C176.264 69.328 175.913 69.637 175.493 69.847C175.079 70.051 174.617 70.153 174.107 70.153C173.591 70.153 173.135 70.051 172.739 69.847C172.349 69.643 172.046 69.346 171.83 68.956C171.614 68.566 171.506 68.098 171.506 67.552C171.506 66.694 171.758 66.028 172.262 65.554C172.772 65.08 173.552 64.792 174.602 64.69L176.564 64.465V63.322C176.564 62.734 176.48 62.272 176.312 61.936C176.15 61.6 175.907 61.366 175.583 61.234C175.259 61.096 174.836 61.027 174.314 61.027C173.978 61.027 173.609 61.06 173.207 61.126C172.811 61.192 172.421 61.291 172.037 61.423V60.496C172.367 60.376 172.751 60.283 173.189 60.217C173.627 60.145 174.041 60.109 174.431 60.109ZM174.341 69.262C174.755 69.262 175.157 69.157 175.547 68.947C175.937 68.737 176.276 68.395 176.564 67.921V65.284L174.656 65.482C173.948 65.554 173.423 65.752 173.081 66.076C172.745 66.394 172.577 66.847 172.577 67.435C172.577 68.047 172.727 68.506 173.027 68.812C173.333 69.112 173.771 69.262 174.341 69.262ZM174.287 58.687L175.7 55.456H176.78L175.169 58.687H174.287ZM185.545 60.253H186.643L183.421 70H182.026L178.813 60.253H179.929L182.737 68.983L185.545 60.253ZM193.896 65.509H188.487C188.505 66.445 188.622 67.186 188.838 67.732C189.054 68.272 189.369 68.659 189.783 68.893C190.203 69.127 190.743 69.244 191.403 69.244C191.973 69.244 192.657 69.124 193.455 68.884V69.811C192.711 70.051 191.994 70.171 191.304 70.171C190.422 70.171 189.696 70.006 189.126 69.676C188.556 69.34 188.127 68.803 187.839 68.065C187.551 67.327 187.407 66.346 187.407 65.122C187.407 63.382 187.701 62.113 188.289 61.315C188.877 60.511 189.693 60.109 190.737 60.109C191.757 60.109 192.537 60.505 193.077 61.297C193.623 62.083 193.896 63.361 193.896 65.131V65.509ZM190.737 60.946C190.041 60.946 189.498 61.228 189.108 61.792C188.718 62.35 188.511 63.319 188.487 64.699H192.852C192.84 63.751 192.747 63.001 192.573 62.449C192.399 61.897 192.159 61.51 191.853 61.288C191.547 61.06 191.175 60.946 190.737 60.946ZM195.724 70V55.456H196.768V70H195.724Z" fill="black" fill-opacity="0.69"/>
</g>
<defs>
<filter id="filter0_d" x="0.15625" y="0.65625" width="210.625" height="54.9688" filterUnits="userSpaceOnUse" color-interpolation-filters="sRGB">
<feFlood flood-opacity="0" result="BackgroundImageFix"/>
<feColorMatrix in="SourceAlpha" type="matrix" values="0 0 0 0 0 0 0 0 0 0 0 0 0 0 0 0 0 0 127 0"/>
<feOffset dy="4"/>
<feGaussianBlur stdDeviation="2"/>
<feColorMatrix type="matrix" values="0 0 0 0 0 0 0 0 0 0 0 0 0 0 0 0 0 0 0.25 0"/>
<feBlend mode="normal" in2="BackgroundImageFix" result="effect1_dropShadow"/>
<feBlend mode="normal" in="SourceGraphic" in2="effect1_dropShadow" result="shape"/>
</filter>
<filter id="filter1_d" x="7.10053" y="55.276" width="193.667" height="22.895" filterUnits="userSpaceOnUse" color-interpolation-filters="sRGB">
<feFlood flood-opacity="0" result="BackgroundImageFix"/>
<feColorMatrix in="SourceAlpha" type="matrix" values="0 0 0 0 0 0 0 0 0 0 0 0 0 0 0 0 0 0 127 0"/>
<feOffset dy="4"/>
<feGaussianBlur stdDeviation="2"/>
<feColorMatrix type="matrix" values="0 0 0 0 0 0 0 0 0 0 0 0 0 0 0 0 0 0 0.25 0"/>
<feBlend mode="normal" in2="BackgroundImageFix" result="effect1_dropShadow"/>
<feBlend mode="normal" in="SourceGraphic" in2="effect1_dropShadow" result="shape"/>
</filter>
</defs>
</svg>
